<svg xmlns="http://www.w3.org/2000/svg" viewBox="0 0 17.256 24.652"><title>dauer</title><g id="Ebene_2" data-name="Ebene 2"><g id="Bearbeitung"><path d="M1.233,24.652H16.024a1.233,1.233,0,0,0,1.233-1.233V20.742a3.724,3.724,0,0,0-1.083-2.615l-5.8-5.8,5.8-5.8a3.674,3.674,0,0,0,1.083-2.616V1.233A1.233,1.233,0,0,0,16.024,0H1.233A1.233,1.233,0,0,0,0,1.233V3.909A3.668,3.668,0,0,0,1.083,6.523l5.8,5.8-5.8,5.8A3.724,3.724,0,0,0,0,20.742v2.677A1.233,1.233,0,0,0,1.233,24.652ZM4.97,4.773a.578.578,0,0,1,.408-.986h6.5a.578.578,0,0,1,.409.986l-3.25,3.25a.578.578,0,0,1-.817,0Z"/></g></g></svg>