<svg xmlns="http://www.w3.org/2000/svg" viewBox="0 0 22.849 26.811"><title>download</title><g id="Ebene_2" data-name="Ebene 2"><g id="Bearbeitung"><path d="M16.586,10.969H13.393V1.8a1.8,1.8,0,0,0-3.606,0v9.166H6.534A.794.794,0,0,0,5.9,12.243l4.06,5.363a.77.77,0,0,0,.12.1,1.794,1.794,0,0,0,3.045-.052c.018-.019.044-.028.059-.049l4.035-5.363A.8.8,0,0,0,16.586,10.969Z"/><path d="M20.307,10.238h-.953V23.315H3.5V10.238H2.543A2.545,2.545,0,0,0,0,12.78V24.268a2.545,2.545,0,0,0,2.543,2.543H20.307a2.545,2.545,0,0,0,2.543-2.543V12.78A2.545,2.545,0,0,0,20.307,10.238Z"/></g></g></svg>