<svg xmlns="http://www.w3.org/2000/svg" viewBox="0 0 26.287 26.287"><title>einstellungen</title><g id="Ebene_2" data-name="Ebene 2"><g id="Bearbeitung"><path d="M21.423,8.448,23.191,6.68a1,1,0,0,0,0-1.414L21.021,3.1a1,1,0,0,0-1.414,0l-1.77,1.769a9.323,9.323,0,0,0-2.306-.942V1a1,1,0,0,0-1-1H11.754a1,1,0,0,0-1,1V3.922a9.343,9.343,0,0,0-2.3.942L6.68,3.1a1,1,0,0,0-1.414,0L3.1,5.266a1,1,0,0,0,0,1.415L4.865,8.448a9.559,9.559,0,0,0-.943,2.306H1a1,1,0,0,0-1,1v2.779a1,1,0,0,0,1,1H3.921a9.526,9.526,0,0,0,.943,2.306L3.1,19.608a1,1,0,0,0,0,1.415l2.171,2.169a1,1,0,0,0,1.414,0L8.45,21.423a9.3,9.3,0,0,0,2.3.941v2.923a1,1,0,0,0,1,1h2.777a1,1,0,0,0,1-1V22.364a9.282,9.282,0,0,0,2.306-.941l1.77,1.769a1,1,0,0,0,1.414,0l2.169-2.169a1,1,0,0,0,0-1.414l-1.768-1.769a9.53,9.53,0,0,0,.944-2.306h2.921a1,1,0,0,0,1-1V11.754a1,1,0,0,0-1-1H22.366A9.563,9.563,0,0,0,21.423,8.448ZM14.34,18.27a5.271,5.271,0,0,1-6.32-6.337,5.217,5.217,0,0,1,3.926-3.916,5.271,5.271,0,0,1,6.32,6.337A5.217,5.217,0,0,1,14.34,18.27Z"/></g></g></svg>