<svg xmlns="http://www.w3.org/2000/svg" viewBox="0 0 22.281 21.167"><title>entfernung</title><g id="Ebene_2" data-name="Ebene 2"><g id="Bearbeitung"><path d="M22.231,15.269,18.193,2.144a3.036,3.036,0,0,0-5.938.893v1.42H10.026V3.036a3.036,3.036,0,0,0-5.939-.893L.049,15.269A1.114,1.114,0,0,0,0,15.6v.557a5.013,5.013,0,1,0,10.026,0V11.14h2.228v5.013a5.013,5.013,0,1,0,10.026,0V15.6A1.108,1.108,0,0,0,22.231,15.269ZM5.013,18.939A2.785,2.785,0,1,1,7.8,16.154,2.788,2.788,0,0,1,5.013,18.939Zm12.254,0a2.785,2.785,0,1,1,2.785-2.785A2.789,2.789,0,0,1,17.268,18.939Z"/></g></g></svg>