<svg xmlns="http://www.w3.org/2000/svg" viewBox="0 0 19.798 17.881"><title>filter</title><g id="Ebene_2" data-name="Ebene 2"><g id="Bearbeitung"><path d="M17.4,0a2.231,2.231,0,1,0,2.231,2.231A2.234,2.234,0,0,0,17.4,0"/><path d="M17.4,13.419a2.231,2.231,0,1,0,2.231,2.231A2.234,2.234,0,0,0,17.4,13.419"/><path d="M2.521,6.694A2.231,2.231,0,1,0,4.752,8.925,2.234,2.234,0,0,0,2.521,6.694"/><path d="M19.8,8.915a1.935,1.935,0,0,1-1.934,1.933H7.392a5.226,5.226,0,0,0,.394-1.986,5.052,5.052,0,0,0-.357-1.874H17.864a1.928,1.928,0,0,1,1.368.565A1.907,1.907,0,0,1,19.8,8.915Z"/><path d="M12.517,4.2H2.119A1.935,1.935,0,0,1,.186,2.266,1.929,1.929,0,0,1,2.119.34H12.487a5.131,5.131,0,0,0-.357,1.889A5.137,5.137,0,0,0,12.517,4.2Z"/><path d="M12.517,17.588H1.933A1.935,1.935,0,0,1,0,15.653a1.929,1.929,0,0,1,1.933-1.926H12.487a5.192,5.192,0,0,0,.03,3.86Z"/></g></g></svg>