<svg xmlns="http://www.w3.org/2000/svg" viewBox="0 0 14.742 29.582"><title>hilfe</title><g id="Ebene_2" data-name="Ebene 2"><g id="Bearbeitung"><path d="M7.372,23.554a3.014,3.014,0,1,0,3.014,3.014,3.019,3.019,0,0,0-3.014-3.014"/><path d="M7.474,0A7.373,7.373,0,0,0,0,7.371a2.171,2.171,0,1,0,4.343,0,3,3,0,0,1,.9-2.155,2.843,2.843,0,0,1,2.17-.872A3.084,3.084,0,0,1,10.4,7.328a3.044,3.044,0,0,1-2.54,3.032,3.135,3.135,0,0,0-2.659,3.1v4.077a2.171,2.171,0,1,0,4.342,0V14.416a7.447,7.447,0,0,0,5.2-7.148A7.421,7.421,0,0,0,7.474,0"/></g></g></svg>