<svg xmlns="http://www.w3.org/2000/svg" viewBox="0 0 7.9 28.868"><title>hinweis</title><g id="Ebene_2" data-name="Ebene 2"><g id="Bearbeitung"><circle cx="3.95" cy="25.854" r="3.014"/><path d="M7.889,3.606a3.824,3.824,0,0,0-.267-1.127A3.981,3.981,0,0,0,3.946,0,4.088,4.088,0,0,0,1.722.685,4,4,0,0,0,.275,2.48,3.8,3.8,0,0,0,.011,3.607,4.568,4.568,0,0,0,0,4.13l.021.328C.05,4.9.1,5.334.134,5.772c.175,1.751.4,3.5.656,5.254s.48,3.5.653,5.254c.037.438.082.876.106,1.314a3.217,3.217,0,0,0,.266,1.314A2.388,2.388,0,0,0,3.49,20.2h0a2.147,2.147,0,0,0,.455.046,2.033,2.033,0,0,1-.382-.038,2.247,2.247,0,0,0,.382.038,2.254,2.254,0,0,0,.382-.038,2.038,2.038,0,0,1-.382.038A2.147,2.147,0,0,0,4.4,20.2h0a2.389,2.389,0,0,0,1.676-1.292,3.214,3.214,0,0,0,.267-1.314c.024-.438.071-.876.107-1.314.175-1.751.4-3.5.659-5.254s.483-3.5.656-5.254c.038-.438.082-.876.106-1.314L7.9,4.13A4.582,4.582,0,0,0,7.889,3.606ZM3.264,20.129c.028.009.056.019.085.026Zm1.365,0-.085.026C4.573,20.148,4.6,20.139,4.629,20.13Z"/></g></g></svg>