<svg xmlns="http://www.w3.org/2000/svg" viewBox="0 0 26.639 24.84"><title>home</title><g id="Ebene_2" data-name="Ebene 2"><g id="Bearbeitung"><path d="M26.185,13.027,14.543.562a1.71,1.71,0,0,0-2.535,0L.394,13a1.512,1.512,0,0,0,0,2.036,1.3,1.3,0,0,0,.848.411v.015H4.183v7.226A2.088,2.088,0,0,0,6.194,24.84h3.52V19.9a2.045,2.045,0,0,1,2.045-2.045h2.777A2.138,2.138,0,0,1,16.675,20V24.84h3.572a2.088,2.088,0,0,0,2.011-2.154V15.461H24.8l.005,0h1.034a1.346,1.346,0,0,0,.5-.379A1.608,1.608,0,0,0,26.185,13.027Z"/></g></g></svg>