<svg xmlns="http://www.w3.org/2000/svg" viewBox="0 0 17.47 29.002"><title>kaffee</title><g id="Ebene_2" data-name="Ebene 2"><g id="Bearbeitung"><path d="M17.47,18.568v.715a7.31,7.31,0,0,1-5.208,7.185H16.1a1.388,1.388,0,0,1,1.373,1.144v.251A1.385,1.385,0,0,1,16.1,29H1.357A1.383,1.383,0,0,1,0,27.933v-.385a1.39,1.39,0,0,1,1.357-1.079H5.2A7.311,7.311,0,0,1,0,19.283V18.69a.827.827,0,0,1,.019-.19,1.391,1.391,0,0,1,1.358-1.079H16.024a.512.512,0,0,1,.073,0A1.389,1.389,0,0,1,17.47,18.568Z"/><path d="M7.455,4C7.376,1.939,11.671,2.472,10.681.488,10.242-.388,8.748.072,7.613.646c-1,.5-5.109,2.792.045,6.878,4.925,3.905.729,5.041-.405,5.417A1.143,1.143,0,0,0,6.46,14.3c.136.564.631.758,1.669.556s7.485-2.562,2.113-7.8C9.557,6.383,7.5,5.253,7.455,4Z"/></g></g></svg>